<svg width="23" height="23" viewBox="0 0 23 23" fill="none" xmlns="http://www.w3.org/2000/svg">
<g clip-path="url(#clip0_6_8)">
<path d="M8.87635 15.7678C8.79136 15.7678 8.70575 15.7385 8.63589 15.679L6.23216 13.6323C6.14924 13.5616 6.10156 13.4584 6.10156 13.3493C6.10156 13.2405 6.14945 13.1373 6.23216 13.0666L8.63589 11.0198C8.79198 10.8868 9.02643 10.9056 9.15951 11.0617C9.29238 11.218 9.27373 11.4525 9.11743 11.5853L7.04598 13.3493L9.11743 15.1134C9.27373 15.2464 9.29238 15.4809 9.15951 15.637C9.08592 15.7234 8.98145 15.7678 8.87635 15.7678Z" fill="#4985FF"/>
<path d="M13.6216 15.7678C13.5166 15.7678 13.4121 15.7234 13.3387 15.637C13.2056 15.4809 13.2245 15.2464 13.3806 15.1134L15.452 13.3493L13.3806 11.5853C13.2245 11.4525 13.2056 11.218 13.3387 11.0617C13.4716 10.9056 13.7062 10.8868 13.8621 11.0198L16.2658 13.0666C16.3488 13.1373 16.3964 13.2405 16.3964 13.3493C16.3964 13.4584 16.3488 13.5616 16.2658 13.6323L13.8621 15.679C13.7922 15.7385 13.7066 15.7678 13.6216 15.7678Z" fill="#4985FF"/>
<path d="M10.3994 17.303C10.3739 17.303 10.3482 17.3003 10.3223 17.295C10.1216 17.2527 9.99311 17.0555 10.0354 16.8549L11.5335 9.7422C11.5758 9.54155 11.7727 9.41303 11.9736 9.45532C12.1742 9.4976 12.3027 9.69453 12.2605 9.89539L10.7624 17.0081C10.7255 17.183 10.5712 17.303 10.3994 17.303Z" fill="#4985FF"/>
<path d="M20.0059 21.1779H2.4941C1.11895 21.1779 0 20.0592 0 18.6838V3.82076C0 2.44561 1.11895 1.32666 2.4941 1.32666H20.0059C21.3811 1.32666 22.5 2.44561 22.5 3.82076V18.6838C22.5 20.0592 21.3811 21.1779 20.0059 21.1779ZM2.4941 2.06958C1.52855 2.06958 0.742925 2.85521 0.742925 3.82076V18.6838C0.742925 19.6494 1.52855 20.435 2.4941 20.435H20.0059C20.9714 20.435 21.7571 19.6494 21.7571 18.6838V3.82076C21.7571 2.85521 20.9714 2.06958 20.0059 2.06958H2.4941Z" fill="#4985FF"/>
<path d="M22.1285 7.27466H0.371462C0.166246 7.27466 0 7.10842 0 6.9032C0 6.69819 0.166246 6.53174 0.371462 6.53174H22.1285C22.3338 6.53174 22.5 6.69819 22.5 6.9032C22.5 7.10842 22.3338 7.27466 22.1285 7.27466Z" fill="#4985FF"/>
<path d="M6.34741 5.49707C5.69943 5.49707 5.17188 4.96952 5.17188 4.32153C5.17188 3.67334 5.69943 3.146 6.34741 3.146C6.99561 3.146 7.52295 3.67334 7.52295 4.32153C7.52295 4.96952 6.99561 5.49707 6.34741 5.49707ZM6.34741 3.88892C6.10903 3.88892 5.9148 4.08294 5.9148 4.32153C5.9148 4.56012 6.10903 4.75415 6.34741 4.75415C6.586 4.75415 6.78002 4.56012 6.78002 4.32153C6.78002 4.08294 6.586 3.88892 6.34741 3.88892Z" fill="#4985FF"/>
<path d="M2.73608 5.48584C2.08789 5.48584 1.56055 4.9585 1.56055 4.3103C1.56055 3.66211 2.08789 3.13477 2.73608 3.13477C3.38427 3.13477 3.91162 3.66211 3.91162 4.3103C3.91162 4.9585 3.38427 5.48584 2.73608 5.48584ZM2.73608 3.87769C2.4977 3.87769 2.30347 4.07192 2.30347 4.3103C2.30347 4.54889 2.4977 4.74292 2.73608 4.74292C2.97467 4.74292 3.16869 4.54889 3.16869 4.3103C3.16869 4.07192 2.97467 3.87769 2.73608 3.87769Z" fill="#4985FF"/>
<path d="M9.95853 5.50809C9.31055 5.50809 8.7832 4.98075 8.7832 4.33256C8.7832 3.68457 9.31055 3.15723 9.95853 3.15723C10.6067 3.15723 11.1341 3.68457 11.1341 4.33256C11.1341 4.98075 10.6067 5.50809 9.95853 5.50809ZM9.95853 3.89994C9.72015 3.89994 9.52613 4.09397 9.52613 4.33256C9.52613 4.57115 9.72015 4.76517 9.95853 4.76517C10.1971 4.76517 10.3911 4.57115 10.3911 4.33256C10.3911 4.09397 10.1971 3.89994 9.95853 3.89994Z" fill="#4985FF"/>
</g>
<defs>
<clipPath id="clip0_6_8">
<rect width="22.5" height="22.5" fill="white"/>
</clipPath>
</defs>
</svg>
