<svg width="45" height="45" viewBox="0 0 45 45" fill="none" xmlns="http://www.w3.org/2000/svg">
<g clip-path="url(#clip0_6_101)">
<circle cx="22.5" cy="22.5" r="22.5" fill="#4985FF"/>
<path d="M22.5 0C10.0738 0 0 10.0736 0 22.5C0 34.9264 10.0738 45 22.5 45C34.9262 45 45 34.9264 45 22.5C45 10.0736 34.9262 0 22.5 0ZM30.2766 23.6927L19.0266 30.7239C18.7989 30.866 18.5401 30.9375 18.2812 30.9375C18.0468 30.9375 17.8119 30.8791 17.5994 30.761C17.1524 30.5132 16.875 30.0428 16.875 29.5312V15.4688C16.875 14.9572 17.1524 14.4868 17.5994 14.239C18.0464 13.9897 18.593 14.0048 19.0266 14.2761L30.2766 21.3073C30.6875 21.5648 30.9375 22.0153 30.9375 22.5C30.9375 22.9847 30.6875 23.4352 30.2766 23.6927Z" fill="white"/>
</g>
<defs>
<clipPath id="clip0_6_101">
<rect width="45" height="45" fill="white"/>
</clipPath>
</defs>
</svg>
