<svg width="30" height="30" viewBox="0 0 30 30" fill="none" xmlns="http://www.w3.org/2000/svg">
<g clip-path="url(#clip0_1_351)">
<path d="M29.4999 0H6.99999C6.72387 0 6.49999 0.223875 6.49999 0.499999V7.99998H7.49999V0.999998H28.9999V28.4999C29.0048 28.7629 28.8019 28.9831 28.5394 28.9999C28.4964 28.9999 28.4534 28.9964 28.4104 28.9954C28.3219 28.9929 28.2334 28.9909 28.1464 28.9819C28.1389 28.9819 28.1319 28.9819 28.1244 28.9789C26.4915 28.8004 25.2015 27.5118 25.0215 25.8789C25.0215 25.8719 25.019 25.8644 25.018 25.8574C25.0058 25.7386 24.9998 25.6193 25 25.4999V24.4999C25 24.2238 24.7761 24 24.5 24H7.49999V15H6.49999V24H2.5C2.22387 24 2 24.2238 2 24.4999V25.4999C2.00275 27.9841 4.01587 29.9972 6.49999 29.9999H28.5499C29.3613 29.9787 30.0062 29.3116 29.9999 28.4999V0.499999C29.9999 0.223875 29.7761 0 29.4999 0ZM6.49999 28.9999C4.56793 28.9978 3.00219 27.432 3 25.4999V24.9999H24V25.4999C24.0006 25.6648 24.0101 25.8296 24.0285 25.9934C24.033 26.0369 24.0415 26.0789 24.0475 26.1219C24.064 26.2429 24.084 26.3634 24.1105 26.4819C24.1195 26.5234 24.131 26.5644 24.1415 26.6059C24.172 26.7264 24.2065 26.8449 24.2465 26.9619C24.258 26.9954 24.27 27.0284 24.2825 27.0619C24.328 27.1859 24.3795 27.3069 24.436 27.4264C24.448 27.4509 24.459 27.4764 24.471 27.4989C24.5336 27.6256 24.6025 27.7488 24.6775 27.8684C24.6875 27.8844 24.6965 27.9009 24.7065 27.9184C24.788 28.0461 24.876 28.1696 24.97 28.2884L24.986 28.3099C25.0951 28.447 25.212 28.5777 25.336 28.7014C25.4436 28.8081 25.5553 28.9081 25.671 29.0014L6.49999 28.9999Z" fill="#4985FF"/>
<path d="M16.5 14C16.6326 14 16.7597 13.9472 16.8535 13.8535L18.8535 11.8535C19.0486 11.6582 19.0486 11.3417 18.8535 11.1465L16.8535 9.1465C16.7597 9.05275 16.6326 9 16.5 9H2.49999C1.11931 9 0 10.1193 0 11.5C0 12.8807 1.11931 14 2.49999 14H16.5ZM16.371 10.078L17.793 11.5L16.371 12.922L16.0155 11.5L16.371 10.078ZM3.99999 10H15.36L15.11 11H4.99999V12H15.11L15.36 13H3.99999V10ZM0.999998 11.5C0.999998 10.6716 1.67156 10 2.49999 10H2.99999V13H2.49999C1.67156 13 0.999998 12.3284 0.999998 11.5Z" fill="#4985FF"/>
<path d="M11.4999 21.4998H26.4999C26.776 21.4998 26.9999 21.276 26.9999 20.9998V5.99987C26.9998 5.72375 26.7759 5.49994 26.4997 5.5C26.3672 5.5 26.2401 5.55269 26.1464 5.64637L11.1464 20.6463C10.9511 20.8416 10.9512 21.1582 11.1465 21.3535C11.2403 21.4471 11.3673 21.4998 11.4999 21.4998ZM25.9999 7.20687V8.49987H24.9999V9.49986H25.9999V10.4999H24.9999V11.4999H25.9999V12.4999H24.9999V13.4999H25.9999V14.4999H24.9999V15.4998H25.9999V16.4998H24.9999V17.4998H25.9999V18.4998H24.9999V19.4998H25.9999V20.4998H24.9999V19.4998H23.9999V20.4998H22.9999V19.4998H21.9999V20.4998H20.9999V19.4998H19.9999V20.4998H18.9999V19.4998H17.9999V20.4998H16.9999V19.4998H15.9999V20.4998H14.9999V19.4998H13.9999V20.4998H12.7069L25.9999 7.20687Z" fill="#4985FF"/>
<path d="M18.7421 18.5H23.4996C23.7757 18.5 23.9996 18.2762 23.9996 18V13.2425C23.9995 12.9664 23.7756 12.7426 23.4995 12.7427C23.3669 12.7427 23.2398 12.7954 23.1461 12.8891L18.3886 17.6465C18.1933 17.8418 18.1934 18.1584 18.3887 18.3537C18.4825 18.4473 18.6095 18.5 18.7421 18.5ZM22.9996 14.45V17.5H19.9496L22.9996 14.45Z" fill="#4985FF"/>
<path d="M23 3H13V4H23V3Z" fill="#4985FF"/>
<path d="M24.5 5H11.5V6H24.5V5Z" fill="#4985FF"/>
<path d="M11.5 15.5H8.5V16.5H11.5V15.5Z" fill="#4985FF"/>
<path d="M10.5 17.5H8.5V18.5H10.5V17.5Z" fill="#4985FF"/>
</g>
<defs>
<clipPath id="clip0_1_351">
<rect width="30" height="30" fill="white"/>
</clipPath>
</defs>
</svg>
